<mxfile host="app.diagrams.net" modified="2023-10-04T03:29:56.610Z" agent="Mozilla/5.0 (Windows NT 10.0; Win64; x64) AppleWebKit/537.36 (KHTML, like Gecko) Chrome/117.0.0.0 Safari/537.36" etag="XAkIOmEswHZ3Un7oS88s" version="21.3.5" type="device">
  <diagram name="Page-1" id="06_M-MZGGFfVaQddECfq">
    <mxGraphModel dx="1050" dy="566" grid="1" gridSize="10" guides="1" tooltips="1" connect="1" arrows="1" fold="1" page="1" pageScale="1" pageWidth="850" pageHeight="1100" math="0" shadow="0">
      <root>
        <mxCell id="0" />
        <mxCell id="1" parent="0" />
        <mxCell id="XGxIZEhn7_wrASkZ44D7-1" value="SYD&lt;br&gt;Sydney Airport" style="rounded=1;whiteSpace=wrap;html=1;" vertex="1" parent="1">
          <mxGeometry x="360" y="270" width="90" height="50" as="geometry" />
        </mxCell>
        <mxCell id="XGxIZEhn7_wrASkZ44D7-2" value="PER&lt;br&gt;Perth Airport" style="rounded=1;whiteSpace=wrap;html=1;" vertex="1" parent="1">
          <mxGeometry x="360" y="440" width="90" height="50" as="geometry" />
        </mxCell>
        <mxCell id="XGxIZEhn7_wrASkZ44D7-3" value="MEL&lt;br&gt;Melbourne Airport" style="rounded=1;whiteSpace=wrap;html=1;" vertex="1" parent="1">
          <mxGeometry x="600" y="270" width="90" height="50" as="geometry" />
        </mxCell>
        <mxCell id="XGxIZEhn7_wrASkZ44D7-4" value="BNE&lt;br&gt;Brisbane Airport" style="rounded=1;whiteSpace=wrap;html=1;" vertex="1" parent="1">
          <mxGeometry x="170" y="250" width="90" height="50" as="geometry" />
        </mxCell>
        <mxCell id="XGxIZEhn7_wrASkZ44D7-5" value="OOL&lt;br&gt;Gold Coast Airport" style="rounded=1;whiteSpace=wrap;html=1;" vertex="1" parent="1">
          <mxGeometry x="30" y="390" width="90" height="50" as="geometry" />
        </mxCell>
        <mxCell id="XGxIZEhn7_wrASkZ44D7-7" value="ADL&lt;br&gt;Adelaide Airport" style="rounded=1;whiteSpace=wrap;html=1;" vertex="1" parent="1">
          <mxGeometry x="130" y="400" width="90" height="50" as="geometry" />
        </mxCell>
        <mxCell id="XGxIZEhn7_wrASkZ44D7-8" value="TSV&lt;br&gt;Townsville Airport" style="rounded=1;whiteSpace=wrap;html=1;" vertex="1" parent="1">
          <mxGeometry x="90" y="460" width="90" height="50" as="geometry" />
        </mxCell>
        <mxCell id="XGxIZEhn7_wrASkZ44D7-9" value="CNS&lt;br&gt;Cairns Airport" style="rounded=1;whiteSpace=wrap;html=1;" vertex="1" parent="1">
          <mxGeometry x="660" y="510" width="90" height="50" as="geometry" />
        </mxCell>
        <mxCell id="XGxIZEhn7_wrASkZ44D7-10" value="HBA&lt;br&gt;Hobart Airport" style="rounded=1;whiteSpace=wrap;html=1;" vertex="1" parent="1">
          <mxGeometry x="50" y="520" width="90" height="50" as="geometry" />
        </mxCell>
      </root>
    </mxGraphModel>
  </diagram>
</mxfile>
